<svg xmlns="http://www.w3.org/2000/svg" viewBox="0 0 512 512" role="img" aria-label="Guitar Trainer">
  <rect width="512" height="512" rx="96" fill="#e9e4d2"/>
  <rect x="20" y="20" width="472" height="472" rx="80" fill="none" stroke="#222820" stroke-opacity="0.18" stroke-width="2"/>
  <rect x="32" y="32" width="448" height="448" rx="72" fill="none" stroke="#525a47" stroke-opacity="0.55" stroke-width="2" stroke-dasharray="6 8"/>
  <g transform="translate(160 132)">
    <line x1="0" y1="40" x2="192" y2="40" stroke="#222820" stroke-width="10" stroke-linecap="square"/>
    <g stroke="#525a47" stroke-width="3">
      <line x1="0"   y1="40" x2="0"   y2="248"/>
      <line x1="48"  y1="40" x2="48"  y2="248"/>
      <line x1="96"  y1="40" x2="96"  y2="248"/>
      <line x1="144" y1="40" x2="144" y2="248"/>
      <line x1="192" y1="40" x2="192" y2="248"/>
    </g>
    <g stroke="#525a47" stroke-opacity="0.55" stroke-width="2">
      <line x1="0" y1="92"  x2="192" y2="92"/>
      <line x1="0" y1="144" x2="192" y2="144"/>
      <line x1="0" y1="196" x2="192" y2="196"/>
      <line x1="0" y1="248" x2="192" y2="248"/>
    </g>
    <circle cx="48"  cy="118" r="20" fill="#3f5a3a"/>
    <circle cx="144" cy="118" r="20" fill="#3f5a3a"/>
    <circle cx="96"  cy="170" r="20" fill="#3f5a3a"/>
    <circle cx="192" cy="14" r="14" fill="none" stroke="#bb8a3e" stroke-width="4"/>
  </g>
</svg>
